<svg xmlns="http://www.w3.org/2000/svg" width="860" height="312" viewBox="0 0 860 312" role="img" aria-label="Daily contributions in the last 90 days"><title>Daily contributions in the last 90 days</title><style>
      .h { font: 700 17px 'Segoe UI', Ubuntu, 'Helvetica Neue', Helvetica, Arial, sans-serif; fill: #e6edf3; }
      .sub { font: 400 12.5px 'Segoe UI', Ubuntu, 'Helvetica Neue', Helvetica, Arial, sans-serif; fill: #8b949e; }
      .sub tspan { fill: #e6edf3; font-weight: 600; }
      .ax { font: 400 11px 'Segoe UI', Ubuntu, 'Helvetica Neue', Helvetica, Arial, sans-serif; fill: #8b949e; }
      .lg { font: 400 12px 'Segoe UI', Ubuntu, 'Helvetica Neue', Helvetica, Arial, sans-serif; fill: #8b949e; }
      .pk { font: 600 11.5px 'Segoe UI', Ubuntu, 'Helvetica Neue', Helvetica, Arial, sans-serif; fill: #e6edf3; }
      .ring { animation: ring 2.2s ease-out infinite; transform-box: fill-box; transform-origin: center; }
      @keyframes ring { from { transform: scale(1); opacity: .9; } to { transform: scale(3.2); opacity: 0; } }
    </style><rect x="0.5" y="0.5" width="859" height="311" rx="12" fill="#161b22" stroke="#30363d"/><defs><linearGradient id="ar" x1="0" x2="0" y1="0" y2="1"><stop offset="0" stop-color="#bb9af7" stop-opacity=".35"/><stop offset="1" stop-color="#bb9af7" stop-opacity="0"/></linearGradient></defs><text class="h" x="24" y="36">Daily contributions in the last 90 days</text><text class="sub" x="24" y="58"><tspan>233</tspan> contributions · peak of <tspan>22</tspan> on Oct 4</text><g transform="translate(631,0)"><rect x="0" y="27" width="10" height="10" rx="2" fill="#7aa2f7" opacity=".6"/><text class="lg" x="16" y="36">each day</text><rect x="92" y="31" width="18" height="3" rx="1.5" fill="#bb9af7"/><text class="lg" x="116" y="36">7-day average</text></g><line x1="48" x2="836" y1="270.0" y2="270.0" stroke="#21262d"/><text class="ax" x="38" y="274.0" text-anchor="end">0</text><line x1="48" x2="836" y1="232.8" y2="232.8" stroke="#21262d" stroke-dasharray="3 4"/><text class="ax" x="38" y="236.8" text-anchor="end">5</text><line x1="48" x2="836" y1="195.6" y2="195.6" stroke="#21262d" stroke-dasharray="3 4"/><text class="ax" x="38" y="199.6" text-anchor="end">10</text><line x1="48" x2="836" y1="158.4" y2="158.4" stroke="#21262d" stroke-dasharray="3 4"/><text class="ax" x="38" y="162.4" text-anchor="end">15</text><line x1="48" x2="836" y1="121.2" y2="121.2" stroke="#21262d" stroke-dasharray="3 4"/><text class="ax" x="38" y="125.2" text-anchor="end">20</text><line x1="48" x2="836" y1="84.0" y2="84.0" stroke="#21262d" stroke-dasharray="3 4"/><text class="ax" x="38" y="88.0" text-anchor="end">25</text><line x1="214.4" x2="214.4" y1="270" y2="275" stroke="#30363d"/><text class="ax" x="218.4" y="290">Aug</text><line x1="485.8" x2="485.8" y1="270" y2="275" stroke="#30363d"/><text class="ax" x="489.8" y="290">Sep</text><line x1="748.4" x2="748.4" y1="270" y2="275" stroke="#30363d"/><text class="ax" x="752.4" y="290">Oct</text><g><rect x="49.23" y="217.9" width="6.30" height="52.1" rx="2.00" fill="#7aa2f7" opacity=".55"/><rect x="57.98" y="247.7" width="6.30" height="22.3" rx="2.00" fill="#7aa2f7" opacity=".55"/><rect x="66.74" y="262.6" width="6.30" height="7.4" rx="2.00" fill="#7aa2f7" opacity=".55"/><rect x="75.49" y="232.8" width="6.30" height="37.2" rx="2.00" fill="#7aa2f7" opacity=".55"/><rect x="84.25" y="262.6" width="6.30" height="7.4" rx="2.00" fill="#7aa2f7" opacity=".55"/><rect x="93.00" y="240.2" width="6.30" height="29.8" rx="2.00" fill="#7aa2f7" opacity=".55"/><rect x="101.76" y="255.1" width="6.30" height="14.9" rx="2.00" fill="#7aa2f7" opacity=".55"/><rect x="119.27" y="255.1" width="6.30" height="14.9" rx="2.00" fill="#7aa2f7" opacity=".55"/><rect x="136.78" y="262.6" width="6.30" height="7.4" rx="2.00" fill="#7aa2f7" opacity=".55"/><rect x="154.29" y="262.6" width="6.30" height="7.4" rx="2.00" fill="#7aa2f7" opacity=".55"/><rect x="189.31" y="225.4" width="6.30" height="44.6" rx="2.00" fill="#7aa2f7" opacity=".55"/><rect x="198.07" y="240.2" width="6.30" height="29.8" rx="2.00" fill="#7aa2f7" opacity=".55"/><rect x="215.58" y="262.6" width="6.30" height="7.4" rx="2.00" fill="#7aa2f7" opacity=".55"/><rect x="233.09" y="247.7" width="6.30" height="22.3" rx="2.00" fill="#7aa2f7" opacity=".55"/><rect x="294.38" y="262.6" width="6.30" height="7.4" rx="2.00" fill="#7aa2f7" opacity=".55"/><rect x="311.89" y="247.7" width="6.30" height="22.3" rx="2.00" fill="#7aa2f7" opacity=".55"/><rect x="320.65" y="255.1" width="6.30" height="14.9" rx="2.00" fill="#7aa2f7" opacity=".55"/><rect x="329.40" y="262.6" width="6.30" height="7.4" rx="2.00" fill="#7aa2f7" opacity=".55"/><rect x="338.16" y="210.5" width="6.30" height="59.5" rx="2.00" fill="#7aa2f7" opacity=".55"/><rect x="346.91" y="225.4" width="6.30" height="44.6" rx="2.00" fill="#7aa2f7" opacity=".55"/><rect x="373.18" y="255.1" width="6.30" height="14.9" rx="2.00" fill="#7aa2f7" opacity=".55"/><rect x="390.69" y="225.4" width="6.30" height="44.6" rx="2.00" fill="#7aa2f7" opacity=".55"/><rect x="408.20" y="225.4" width="6.30" height="44.6" rx="2.00" fill="#7aa2f7" opacity=".55"/><rect x="416.96" y="247.7" width="6.30" height="22.3" rx="2.00" fill="#7aa2f7" opacity=".55"/><rect x="425.71" y="240.2" width="6.30" height="29.8" rx="2.00" fill="#7aa2f7" opacity=".55"/><rect x="434.47" y="262.6" width="6.30" height="7.4" rx="2.00" fill="#7aa2f7" opacity=".55"/><rect x="443.23" y="247.7" width="6.30" height="22.3" rx="2.00" fill="#7aa2f7" opacity=".55"/><rect x="451.98" y="262.6" width="6.30" height="7.4" rx="2.00" fill="#7aa2f7" opacity=".55"/><rect x="495.76" y="262.6" width="6.30" height="7.4" rx="2.00" fill="#7aa2f7" opacity=".55"/><rect x="504.51" y="240.2" width="6.30" height="29.8" rx="2.00" fill="#7aa2f7" opacity=".55"/><rect x="522.03" y="247.7" width="6.30" height="22.3" rx="2.00" fill="#7aa2f7" opacity=".55"/><rect x="530.78" y="232.8" width="6.30" height="37.2" rx="2.00" fill="#7aa2f7" opacity=".55"/><rect x="548.29" y="232.8" width="6.30" height="37.2" rx="2.00" fill="#7aa2f7" opacity=".55"/><rect x="592.07" y="180.7" width="6.30" height="89.3" rx="2.00" fill="#7aa2f7" opacity=".55"/><rect x="627.09" y="232.8" width="6.30" height="37.2" rx="2.00" fill="#7aa2f7" opacity=".55"/><rect x="635.85" y="255.1" width="6.30" height="14.9" rx="2.00" fill="#7aa2f7" opacity=".55"/><rect x="644.60" y="255.1" width="6.30" height="14.9" rx="2.00" fill="#7aa2f7" opacity=".55"/><rect x="653.36" y="217.9" width="6.30" height="52.1" rx="2.00" fill="#7aa2f7" opacity=".55"/><rect x="670.87" y="232.8" width="6.30" height="37.2" rx="2.00" fill="#7aa2f7" opacity=".55"/><rect x="679.63" y="255.1" width="6.30" height="14.9" rx="2.00" fill="#7aa2f7" opacity=".55"/><rect x="688.38" y="255.1" width="6.30" height="14.9" rx="2.00" fill="#7aa2f7" opacity=".55"/><rect x="697.14" y="217.9" width="6.30" height="52.1" rx="2.00" fill="#7aa2f7" opacity=".55"/><rect x="705.89" y="158.4" width="6.30" height="111.6" rx="2.00" fill="#7aa2f7" opacity=".55"/><rect x="714.65" y="210.5" width="6.30" height="59.5" rx="2.00" fill="#7aa2f7" opacity=".55"/><rect x="723.40" y="210.5" width="6.30" height="59.5" rx="2.00" fill="#7aa2f7" opacity=".55"/><rect x="749.67" y="255.1" width="6.30" height="14.9" rx="2.00" fill="#7aa2f7" opacity=".55"/><rect x="758.43" y="247.7" width="6.30" height="22.3" rx="2.00" fill="#7aa2f7" opacity=".55"/><rect x="767.18" y="188.2" width="6.30" height="81.8" rx="2.00" fill="#7aa2f7" opacity=".55"/><rect x="775.94" y="106.3" width="6.30" height="163.7" rx="2.00" fill="#7aa2f7" opacity=".55"/><rect x="784.69" y="247.7" width="6.30" height="22.3" rx="2.00" fill="#7aa2f7" opacity=".55"/><rect x="793.45" y="240.2" width="6.30" height="29.8" rx="2.00" fill="#7aa2f7" opacity=".55"/><rect x="802.20" y="240.2" width="6.30" height="29.8" rx="2.00" fill="#7aa2f7" opacity=".55"/><rect x="828.47" y="247.7" width="6.30" height="22.3" rx="2.00" fill="#7aa2f7" opacity=".55"/></g><polygon points="52.4,270 52.4,262.6 61.1,259.4 69.9,258.3 78.6,253.0 87.4,251.9 96.2,247.7 104.9,245.6 113.7,253.0 122.4,254.1 131.2,255.1 139.9,259.4 148.7,260.4 157.4,263.6 166.2,265.7 175.0,265.7 183.7,267.9 192.5,261.5 201.2,258.3 210.0,258.3 218.7,258.3 227.5,258.3 236.2,255.1 245.0,255.1 253.8,261.5 262.5,265.7 271.3,265.7 280.0,266.8 288.8,266.8 297.5,268.9 306.3,268.9 315.0,265.7 323.8,263.6 332.6,262.6 341.3,254.1 350.1,247.7 358.8,248.7 367.6,248.7 376.3,249.8 385.1,251.9 393.8,246.6 402.6,255.1 411.4,255.1 420.1,251.9 428.9,247.7 437.6,248.7 446.4,245.6 455.1,250.9 463.9,250.9 472.6,257.2 481.4,260.4 490.2,264.7 498.9,264.7 507.7,263.6 516.4,264.7 525.2,261.5 533.9,256.2 542.7,256.2 551.4,250.9 560.2,251.9 569.0,256.2 577.7,256.2 586.5,259.4 595.2,251.9 604.0,251.9 612.7,257.2 621.5,257.2 630.2,251.9 639.0,249.8 647.8,247.7 656.5,253.0 665.3,253.0 674.0,247.7 682.8,245.6 691.5,248.7 700.3,243.4 709.0,229.6 717.8,228.5 726.6,220.0 735.3,225.4 744.1,227.5 752.8,227.5 761.6,231.7 770.3,236.0 779.1,221.1 787.8,226.4 796.6,222.2 805.4,217.9 814.1,220.0 822.9,223.2 831.6,231.7 831.6,270" fill="url(#ar)"/><polyline points="52.4,262.6 61.1,259.4 69.9,258.3 78.6,253.0 87.4,251.9 96.2,247.7 104.9,245.6 113.7,253.0 122.4,254.1 131.2,255.1 139.9,259.4 148.7,260.4 157.4,263.6 166.2,265.7 175.0,265.7 183.7,267.9 192.5,261.5 201.2,258.3 210.0,258.3 218.7,258.3 227.5,258.3 236.2,255.1 245.0,255.1 253.8,261.5 262.5,265.7 271.3,265.7 280.0,266.8 288.8,266.8 297.5,268.9 306.3,268.9 315.0,265.7 323.8,263.6 332.6,262.6 341.3,254.1 350.1,247.7 358.8,248.7 367.6,248.7 376.3,249.8 385.1,251.9 393.8,246.6 402.6,255.1 411.4,255.1 420.1,251.9 428.9,247.7 437.6,248.7 446.4,245.6 455.1,250.9 463.9,250.9 472.6,257.2 481.4,260.4 490.2,264.7 498.9,264.7 507.7,263.6 516.4,264.7 525.2,261.5 533.9,256.2 542.7,256.2 551.4,250.9 560.2,251.9 569.0,256.2 577.7,256.2 586.5,259.4 595.2,251.9 604.0,251.9 612.7,257.2 621.5,257.2 630.2,251.9 639.0,249.8 647.8,247.7 656.5,253.0 665.3,253.0 674.0,247.7 682.8,245.6 691.5,248.7 700.3,243.4 709.0,229.6 717.8,228.5 726.6,220.0 735.3,225.4 744.1,227.5 752.8,227.5 761.6,231.7 770.3,236.0 779.1,221.1 787.8,226.4 796.6,222.2 805.4,217.9 814.1,220.0 822.9,223.2 831.6,231.7" fill="none" stroke="#bb9af7" stroke-width="2.5" stroke-linejoin="round" stroke-linecap="round"/><circle class="ring" cx="779.1" cy="106.3" r="4" fill="none" stroke="#ff9e64" stroke-width="1.5"/><circle cx="779.1" cy="106.3" r="4" fill="#ff9e64" stroke="#161b22" stroke-width="2"/></svg>