<svg xmlns="http://www.w3.org/2000/svg" width="860" height="312" viewBox="0 0 860 312" role="img" aria-label="Daily contributions in the last 90 days"><title>Daily contributions in the last 90 days</title><style>
      .h { font: 700 17px 'Segoe UI', Ubuntu, 'Helvetica Neue', Helvetica, Arial, sans-serif; fill: #1f2328; }
      .sub { font: 400 12.5px 'Segoe UI', Ubuntu, 'Helvetica Neue', Helvetica, Arial, sans-serif; fill: #59636e; }
      .sub tspan { fill: #1f2328; font-weight: 600; }
      .ax { font: 400 11px 'Segoe UI', Ubuntu, 'Helvetica Neue', Helvetica, Arial, sans-serif; fill: #59636e; }
      .lg { font: 400 12px 'Segoe UI', Ubuntu, 'Helvetica Neue', Helvetica, Arial, sans-serif; fill: #59636e; }
      .pk { font: 600 11.5px 'Segoe UI', Ubuntu, 'Helvetica Neue', Helvetica, Arial, sans-serif; fill: #1f2328; }
      .ring { animation: ring 2.2s ease-out infinite; transform-box: fill-box; transform-origin: center; }
      @keyframes ring { from { transform: scale(1); opacity: .9; } to { transform: scale(3.2); opacity: 0; } }
    </style><rect x="0.5" y="0.5" width="859" height="311" rx="12" fill="#f6f8fa" stroke="#d0d7de"/><defs><linearGradient id="ar" x1="0" x2="0" y1="0" y2="1"><stop offset="0" stop-color="#7a4ec2" stop-opacity=".35"/><stop offset="1" stop-color="#7a4ec2" stop-opacity="0"/></linearGradient></defs><text class="h" x="24" y="36">Daily contributions in the last 90 days</text><text class="sub" x="24" y="58"><tspan>168</tspan> contributions · peak of <tspan>15</tspan> on Sep 26</text><g transform="translate(631,0)"><rect x="0" y="27" width="10" height="10" rx="2" fill="#2e59c9" opacity=".6"/><text class="lg" x="16" y="36">each day</text><rect x="92" y="31" width="18" height="3" rx="1.5" fill="#7a4ec2"/><text class="lg" x="116" y="36">7-day average</text></g><line x1="48" x2="836" y1="270.0" y2="270.0" stroke="#e5e8eb"/><text class="ax" x="38" y="274.0" text-anchor="end">0</text><line x1="48" x2="836" y1="208.0" y2="208.0" stroke="#e5e8eb" stroke-dasharray="3 4"/><text class="ax" x="38" y="212.0" text-anchor="end">5</text><line x1="48" x2="836" y1="146.0" y2="146.0" stroke="#e5e8eb" stroke-dasharray="3 4"/><text class="ax" x="38" y="150.0" text-anchor="end">10</text><line x1="48" x2="836" y1="84.0" y2="84.0" stroke="#e5e8eb" stroke-dasharray="3 4"/><text class="ax" x="38" y="88.0" text-anchor="end">15</text><line x1="48.0" x2="48.0" y1="270" y2="275" stroke="#d0d7de"/><text class="ax" x="52.0" y="290">Jul</text><line x1="275.6" x2="275.6" y1="270" y2="275" stroke="#d0d7de"/><text class="ax" x="279.6" y="290">Aug</text><line x1="547.1" x2="547.1" y1="270" y2="275" stroke="#d0d7de"/><text class="ax" x="551.1" y="290">Sep</text><line x1="809.7" x2="809.7" y1="270" y2="275" stroke="#d0d7de"/><text class="ax" x="813.7" y="290">Oct</text><g><rect x="110.51" y="183.2" width="6.30" height="86.8" rx="2.00" fill="#2e59c9" opacity=".55"/><rect x="119.27" y="232.8" width="6.30" height="37.2" rx="2.00" fill="#2e59c9" opacity=".55"/><rect x="128.03" y="257.6" width="6.30" height="12.4" rx="2.00" fill="#2e59c9" opacity=".55"/><rect x="136.78" y="208.0" width="6.30" height="62.0" rx="2.00" fill="#2e59c9" opacity=".55"/><rect x="145.54" y="257.6" width="6.30" height="12.4" rx="2.00" fill="#2e59c9" opacity=".55"/><rect x="154.29" y="220.4" width="6.30" height="49.6" rx="2.00" fill="#2e59c9" opacity=".55"/><rect x="163.05" y="245.2" width="6.30" height="24.8" rx="2.00" fill="#2e59c9" opacity=".55"/><rect x="180.56" y="245.2" width="6.30" height="24.8" rx="2.00" fill="#2e59c9" opacity=".55"/><rect x="198.07" y="257.6" width="6.30" height="12.4" rx="2.00" fill="#2e59c9" opacity=".55"/><rect x="215.58" y="257.6" width="6.30" height="12.4" rx="2.00" fill="#2e59c9" opacity=".55"/><rect x="250.60" y="195.6" width="6.30" height="74.4" rx="2.00" fill="#2e59c9" opacity=".55"/><rect x="259.36" y="220.4" width="6.30" height="49.6" rx="2.00" fill="#2e59c9" opacity=".55"/><rect x="276.87" y="257.6" width="6.30" height="12.4" rx="2.00" fill="#2e59c9" opacity=".55"/><rect x="294.38" y="232.8" width="6.30" height="37.2" rx="2.00" fill="#2e59c9" opacity=".55"/><rect x="355.67" y="257.6" width="6.30" height="12.4" rx="2.00" fill="#2e59c9" opacity=".55"/><rect x="373.18" y="232.8" width="6.30" height="37.2" rx="2.00" fill="#2e59c9" opacity=".55"/><rect x="381.94" y="245.2" width="6.30" height="24.8" rx="2.00" fill="#2e59c9" opacity=".55"/><rect x="390.69" y="257.6" width="6.30" height="12.4" rx="2.00" fill="#2e59c9" opacity=".55"/><rect x="399.45" y="170.8" width="6.30" height="99.2" rx="2.00" fill="#2e59c9" opacity=".55"/><rect x="408.20" y="195.6" width="6.30" height="74.4" rx="2.00" fill="#2e59c9" opacity=".55"/><rect x="434.47" y="245.2" width="6.30" height="24.8" rx="2.00" fill="#2e59c9" opacity=".55"/><rect x="451.98" y="195.6" width="6.30" height="74.4" rx="2.00" fill="#2e59c9" opacity=".55"/><rect x="469.49" y="195.6" width="6.30" height="74.4" rx="2.00" fill="#2e59c9" opacity=".55"/><rect x="478.25" y="232.8" width="6.30" height="37.2" rx="2.00" fill="#2e59c9" opacity=".55"/><rect x="487.00" y="220.4" width="6.30" height="49.6" rx="2.00" fill="#2e59c9" opacity=".55"/><rect x="495.76" y="257.6" width="6.30" height="12.4" rx="2.00" fill="#2e59c9" opacity=".55"/><rect x="504.51" y="232.8" width="6.30" height="37.2" rx="2.00" fill="#2e59c9" opacity=".55"/><rect x="513.27" y="257.6" width="6.30" height="12.4" rx="2.00" fill="#2e59c9" opacity=".55"/><rect x="557.05" y="257.6" width="6.30" height="12.4" rx="2.00" fill="#2e59c9" opacity=".55"/><rect x="565.80" y="232.8" width="6.30" height="37.2" rx="2.00" fill="#2e59c9" opacity=".55"/><rect x="583.31" y="232.8" width="6.30" height="37.2" rx="2.00" fill="#2e59c9" opacity=".55"/><rect x="592.07" y="208.0" width="6.30" height="62.0" rx="2.00" fill="#2e59c9" opacity=".55"/><rect x="609.58" y="220.4" width="6.30" height="49.6" rx="2.00" fill="#2e59c9" opacity=".55"/><rect x="653.36" y="121.2" width="6.30" height="148.8" rx="2.00" fill="#2e59c9" opacity=".55"/><rect x="688.38" y="208.0" width="6.30" height="62.0" rx="2.00" fill="#2e59c9" opacity=".55"/><rect x="697.14" y="257.6" width="6.30" height="12.4" rx="2.00" fill="#2e59c9" opacity=".55"/><rect x="705.89" y="257.6" width="6.30" height="12.4" rx="2.00" fill="#2e59c9" opacity=".55"/><rect x="714.65" y="208.0" width="6.30" height="62.0" rx="2.00" fill="#2e59c9" opacity=".55"/><rect x="749.67" y="245.2" width="6.30" height="24.8" rx="2.00" fill="#2e59c9" opacity=".55"/><rect x="758.43" y="183.2" width="6.30" height="86.8" rx="2.00" fill="#2e59c9" opacity=".55"/><rect x="767.18" y="84.0" width="6.30" height="186.0" rx="2.00" fill="#2e59c9" opacity=".55"/><rect x="775.94" y="183.2" width="6.30" height="86.8" rx="2.00" fill="#2e59c9" opacity=".55"/><rect x="784.69" y="208.0" width="6.30" height="62.0" rx="2.00" fill="#2e59c9" opacity=".55"/><rect x="819.71" y="257.6" width="6.30" height="12.4" rx="2.00" fill="#2e59c9" opacity=".55"/><rect x="828.47" y="232.8" width="6.30" height="37.2" rx="2.00" fill="#2e59c9" opacity=".55"/></g><polygon points="52.4,270 52.4,266.5 61.1,270.0 69.9,270.0 78.6,270.0 87.4,270.0 96.2,270.0 104.9,270.0 113.7,257.6 122.4,252.3 131.2,250.5 139.9,241.7 148.7,239.9 157.4,232.8 166.2,229.3 175.0,241.7 183.7,243.4 192.5,245.2 201.2,252.3 210.0,254.1 218.7,259.4 227.5,262.9 236.2,262.9 245.0,266.5 253.8,255.8 262.5,250.5 271.3,250.5 280.0,250.5 288.8,250.5 297.5,245.2 306.3,245.2 315.0,255.8 323.8,262.9 332.6,262.9 341.3,264.7 350.1,264.7 358.8,268.2 367.6,268.2 376.3,262.9 385.1,259.4 393.8,257.6 402.6,243.4 411.4,232.8 420.1,234.6 428.9,234.6 437.6,236.3 446.4,239.9 455.1,231.0 463.9,245.2 472.6,245.2 481.4,239.9 490.2,232.8 498.9,234.6 507.7,229.3 516.4,238.1 525.2,238.1 533.9,248.7 542.7,254.1 551.4,261.1 560.2,261.1 569.0,261.1 577.7,262.9 586.5,257.6 595.2,248.7 604.0,248.7 612.7,241.7 621.5,243.4 630.2,248.7 639.0,248.7 647.8,254.1 656.5,241.7 665.3,241.7 674.0,248.7 682.8,248.7 691.5,239.9 700.3,238.1 709.0,236.3 717.8,248.7 726.6,248.7 735.3,248.7 744.1,248.7 752.8,254.1 761.6,243.4 770.3,218.6 779.1,215.1 787.8,206.2 796.6,206.2 805.4,206.2 814.1,209.8 822.9,220.4 831.6,241.7 831.6,270" fill="url(#ar)"/><polyline points="52.4,266.5 61.1,270.0 69.9,270.0 78.6,270.0 87.4,270.0 96.2,270.0 104.9,270.0 113.7,257.6 122.4,252.3 131.2,250.5 139.9,241.7 148.7,239.9 157.4,232.8 166.2,229.3 175.0,241.7 183.7,243.4 192.5,245.2 201.2,252.3 210.0,254.1 218.7,259.4 227.5,262.9 236.2,262.9 245.0,266.5 253.8,255.8 262.5,250.5 271.3,250.5 280.0,250.5 288.8,250.5 297.5,245.2 306.3,245.2 315.0,255.8 323.8,262.9 332.6,262.9 341.3,264.7 350.1,264.7 358.8,268.2 367.6,268.2 376.3,262.9 385.1,259.4 393.8,257.6 402.6,243.4 411.4,232.8 420.1,234.6 428.9,234.6 437.6,236.3 446.4,239.9 455.1,231.0 463.9,245.2 472.6,245.2 481.4,239.9 490.2,232.8 498.9,234.6 507.7,229.3 516.4,238.1 525.2,238.1 533.9,248.7 542.7,254.1 551.4,261.1 560.2,261.1 569.0,261.1 577.7,262.9 586.5,257.6 595.2,248.7 604.0,248.7 612.7,241.7 621.5,243.4 630.2,248.7 639.0,248.7 647.8,254.1 656.5,241.7 665.3,241.7 674.0,248.7 682.8,248.7 691.5,239.9 700.3,238.1 709.0,236.3 717.8,248.7 726.6,248.7 735.3,248.7 744.1,248.7 752.8,254.1 761.6,243.4 770.3,218.6 779.1,215.1 787.8,206.2 796.6,206.2 805.4,206.2 814.1,209.8 822.9,220.4 831.6,241.7" fill="none" stroke="#7a4ec2" stroke-width="2.5" stroke-linejoin="round" stroke-linecap="round"/><circle class="ring" cx="770.3" cy="84.0" r="4" fill="none" stroke="#c75b14" stroke-width="1.5"/><circle cx="770.3" cy="84.0" r="4" fill="#c75b14" stroke="#f6f8fa" stroke-width="2"/></svg>